/* XPM */
static char *kernel-remover-16[] = {
/* columns rows colors chars-per-pixel */
"16 16 207 2",
"   c black",
".  c #0C0A0A",
"X  c #3A0F0F",
"o  c gray20",
"O  c gray24",
"+  c #4F1313",
"@  c #5B4848",
"#  c #694949",
"$  c #725761",
"%  c gray40",
"&  c #65646B",
"*  c DimGray",
"=  c #6F6C77",
"-  c #726262",
";  c #767676",
":  c #74747F",
">  c gray47",
",  c #787682",
"<  c #910000",
"1  c #980000",
"2  c #943434",
"3  c #A20803",
"4  c #A70804",
"5  c #AB0503",
"6  c #AC0500",
"7  c #A31F1F",
"8  c #B10403",
"9  c #B90505",
"0  c #BD0D0D",
"q  c #B21D1D",
"w  c #BA1010",
"e  c #BC1111",
"r  c #BF181A",
"t  c #AF2B2B",
"y  c #AF3B3F",
"u  c #913B41",
"i  c #99484F",
"p  c #886969",
"a  c #837778",
"s  c #887D7D",
"d  c #956565",
"f  c #A04A4C",
"g  c #A34F4F",
"h  c #A15050",
"j  c #A05052",
"k  c #A35252",
"l  c #A65252",
"z  c #A3595A",
"x  c #BB4848",
"c  c #BE5E5F",
"v  c #A06E76",
"b  c #A77070",
"n  c #B66E6E",
"m  c #B6797C",
"M  c #B87070",
"N  c #C40808",
"B  c #C80000",
"V  c #C90505",
"C  c #CF0000",
"Z  c #CD0E0E",
"A  c #C21111",
"S  c #D00000",
"D  c #D10505",
"F  c #D10707",
"G  c #D40707",
"H  c #D30B0B",
"J  c #D40808",
"K  c #D50E0E",
"L  c #D70D0D",
"P  c #D60F0F",
"I  c #D11717",
"U  c #D41313",
"Y  c #D51212",
"T  c #D41616",
"R  c #D01B1B",
"E  c #D41D1D",
"W  c #D91111",
"Q  c #DA1313",
"!  c #C42123",
"~  c #CB3638",
"^  c #D52929",
"/  c #DB2020",
"(  c #D73232",
")  c #D93434",
"_  c #DA3C3C",
"`  c #E01E1E",
"'  c #D64848",
"]  c #DD5050",
"[  c #DE5050",
"{  c #DE5151",
"}  c #DF5353",
"|  c #E05757",
" . c #E16161",
".. c #E36666",
"X. c #E46C6C",
"o. c #E46D6D",
"O. c #E46E6E",
"+. c #E57171",
"@. c #8D7881",
"#. c #C07F82",
"$. c #868787",
"%. c #88888D",
"&. c #8D8A8A",
"*. c #8D8D8D",
"=. c #8E8E8E",
"-. c #8A8992",
";. c #8C8C9E",
":. c #938787",
">. c gray58",
",. c #9A9898",
"<. c #9B9BA1",
"1. c #9E9EA5",
"2. c #9999AA",
"3. c #9E9DB2",
"4. c #A18185",
"5. c #A88787",
"6. c #AB8686",
"7. c #AA8B8B",
"8. c #AA8F8F",
"9. c #A19B9C",
"0. c #A4999E",
"q. c #BE878C",
"w. c #BC9399",
"e. c #BD999F",
"r. c #A29EA6",
"t. c #A29FAF",
"y. c #A0A0A0",
"u. c #A3A2A2",
"i. c #A7A3A5",
"p. c gray65",
"a. c #A5A7A9",
"s. c #A5A7AA",
"d. c #AFAFB7",
"f. c #B2B0B0",
"g. c gray70",
"h. c #B4B3B3",
"j. c #B6B6B6",
"k. c #B7B7B7",
"l. c #B1B1BE",
"z. c #B4B2BA",
"x. c #B6B4B8",
"c. c #B5B4BC",
"v. c #B9B7B7",
"b. c #BDB6BB",
"n. c #BCBCBC",
"m. c #AEAEC1",
"M. c #B3B3C6",
"N. c #BAB9C6",
"B. c #BEBEC5",
"V. c #B9B9C8",
"C. c #BEBECD",
"Z. c #CE8D8F",
"A. c #DD8D8F",
"S. c #D49196",
"D. c #C2A0A5",
"F. c #C1B3BA",
"G. c #D1BABE",
"H. c #E88787",
"J. c #E98888",
"K. c #EB9191",
"L. c #EB9494",
"P. c #EC9A9A",
"I. c #C1C1C1",
"U. c #C6C6C6",
"Y. c #CACACA",
"T. c #CDCDCD",
"R. c #C4C4D3",
"E. c #C5C5D3",
"W. c #C9C9D1",
"Q. c #CECED2",
"!. c #D1D0D0",
"~. c #D2D0D0",
"^. c #D2D1D1",
"/. c #D0D0D9",
"(. c #D2D2DB",
"). c #D4D4DB",
"_. c #D5D5DC",
"`. c #D6D6DE",
"'. c #D8D8D8",
"]. c gray85",
"[. c gray86",
"{. c #DBDBE1",
"}. c #DBDBE4",
"|. c #DDDDE1",
" X c #DDDDE2",
".X c #DFDDE3",
"XX c #DFDFE0",
"oX c #E2E2E7",
"OX c #E3E3E6",
"+X c #E4E4E4",
"@X c gray90",
"#X c #E6E6E6",
"$X c #E5E5E9",
"%X c #E5E5EA",
"&X c #E9E9E9",
"*X c #E8E8EB",
"=X c #EAEAEA",
"-X c gray92",
";X c #E9E8EC",
":X c #EBEBF0",
">X c #EFEFF3",
",X c #F2F2F5",
"<X c #F3F3F5",
"1X c #F5F5F7",
"2X c #F6F6F6",
"3X c gray100",
"4X c None",
/* pixels */
"4X4X4XB B B B B B B % * $.y.4X4X",
"4XS I { X.' _ ^ R t ,.p.M B B B ",
"4XE P.K.H.Z.X.w.q.:.[.5.( ( V b ",
"4X{ L.J.Z.1XD..Xb.Y.1X8.U I n s ",
"4X+.A.F.e.>X,X*X,Xn.-X*X7.5.p.- ",
"4XX.m W.:Xd.: = & U.[.-X2X[.&.2 ",
"4X..S.c.).-.c g k.@XI.g.n.p q B ",
"4X .M.R.B.0.l k.+X!.%.}.! F N B ",
"4X} j ;.V.x.k.@X!.z z.R.N.y 9 B ",
"  { v 2.m..X[.!.x G./.3.u r 8 B ",
"  { $ , l.).OX.XOX-XC.t.~ K 5 B ",
"4X' k u.1.`..XOXoX).r.@.i K 4 B ",
"4X# >.T.<.a 9.*Xi.Q.4.` W Z 3 B ",
"O *.v.f.7 G k k./ d f W J A 6 4X",
"> 4X*.@ S S F J e U K G 0 e 4X4X",
"p.; o           . X < 1 +       "
};
