/* XPM */
static char *kernel-remover[] = {
/* columns rows colors chars-per-pixel */
"32 32 247 2",
"   c #000000",
".  c #140D0D",
"X  c #2F1111",
"o  c #320000",
"O  c #212121",
"+  c #3A3A3A",
"@  c #521E1E",
"#  c #482929",
"$  c #5E3133",
"%  c #6A0101",
"&  c #681A1A",
"*  c #7B0101",
"=  c #612D2D",
"-  c #622E30",
";  c #703737",
":  c #7E3636",
">  c #533D43",
",  c #424242",
"<  c #494949",
"1  c #565656",
"2  c #5F595A",
"3  c #67585D",
"4  c #695050",
"5  c #7F4949",
"6  c #705454",
"7  c #745D5D",
"8  c #7B5252",
"9  c #795E6A",
"0  c #646465",
"q  c #6C6464",
"w  c #6B6169",
"e  c #6C6B6B",
"r  c #656570",
"t  c #6B6B75",
"y  c #746364",
"u  c #78646C",
"i  c #706C74",
"p  c #766D7A",
"a  c #747474",
"s  c #777778",
"d  c #7B7575",
"f  c #78737E",
"g  c #7D7D7D",
"h  c #7C7C87",
"j  c #7C7C88",
"k  c #8A0A0A",
"l  c #841919",
"z  c #8C1515",
"x  c #950300",
"c  c #950C0C",
"v  c #9E0400",
"b  c #9F0800",
"n  c #921D1E",
"m  c #9C3133",
"M  c #9B3D3D",
"N  c #A30100",
"B  c #A30A01",
"V  c #A30D0B",
"C  c #AA0401",
"Z  c #AA0B03",
"A  c #A90B0A",
"S  c #AC1000",
"D  c #A31111",
"F  c #A41A1A",
"G  c #B30403",
"H  c #B10907",
"J  c #B40C0C",
"K  c #BB0300",
"L  c #BF0E00",
"P  c #BB0B0B",
"I  c #B41300",
"U  c #BC1400",
"Y  c #B41111",
"T  c #BA1313",
"R  c #BB1B1B",
"E  c #A32020",
"W  c #A22929",
"Q  c #AC2222",
"!  c #AA2A2A",
"~  c #B42324",
"^  c #883A42",
"/  c #84454B",
"(  c #885656",
")  c #974141",
"_  c #97494A",
"`  c #984242",
"'  c #955C5D",
"]  c #9B5252",
"[  c #8A5D62",
"{  c #826B6C",
"}  c #8B6769",
"|  c #836774",
" . c #8D6D78",
".. c #94636F",
"X. c #96686E",
"o. c #947376",
"O. c #95737E",
"+. c #A74F4F",
"@. c #AF4949",
"#. c #A35555",
"$. c #AC5252",
"%. c #B74545",
"&. c #B54D4D",
"*. c #B25253",
"=. c #B25B5C",
"-. c #A65D62",
";. c #A16267",
":. c #A86C6E",
">. c #B3676F",
",. c #BF6D6D",
"<. c #BD7C7E",
"1. c #C40101",
"2. c #C30B0A",
"3. c #C80000",
"4. c #CC0A0A",
"5. c #C21414",
"6. c #C41919",
"7. c #C91212",
"8. c #CD1918",
"9. c #D00202",
"0. c #D30A0A",
"q. c #D21313",
"w. c #D31A1A",
"e. c #D91111",
"r. c #DD1919",
"t. c #C42929",
"y. c #CF2C2C",
"u. c #C53E3E",
"i. c #CE3F3F",
"p. c #D62222",
"a. c #D62A2A",
"s. c #D92E2E",
"d. c #D83131",
"f. c #D93C3C",
"g. c #E01E1E",
"h. c #C64141",
"j. c #CD4848",
"k. c #C75858",
"l. c #D14545",
"z. c #DB4444",
"x. c #DB4B4B",
"c. c #D35A5A",
"v. c #DD5151",
"b. c #C86B6B",
"n. c #C67577",
"m. c #C97677",
"M. c #CE7878",
"N. c #D56060",
"B. c #D56868",
"V. c #DE6767",
"C. c #DB6E6F",
"Z. c #D57676",
"A. c #E34F4F",
"S. c #E25454",
"D. c #E05A5A",
"F. c #F34141",
"G. c #F94B4B",
"H. c #E26464",
"J. c #E26B6B",
"K. c #E47272",
"L. c #E47A7A",
"P. c #A77881",
"I. c #848485",
"U. c #82828B",
"Y. c #878989",
"T. c #8B8B8B",
"R. c #878792",
"E. c #868698",
"W. c #8A8A94",
"Q. c #8E8E99",
"!. c #928F8F",
"~. c #908697",
"^. c #958F92",
"/. c #939494",
"(. c #94949A",
"). c #999494",
"_. c #9B9B9B",
"`. c #9D9BA3",
"'. c #9D9CB0",
"]. c #A18383",
"[. c #A28E8E",
"{. c #AB8B8B",
"}. c #A88D91",
"|. c #A09296",
" X c #A3939A",
".X c #A49F9F",
"XX c #B1898F",
"oX c #BB8181",
"OX c #BB8D8D",
"+X c #B4999F",
"@X c #BD969C",
"#X c #A29DA0",
"$X c #B69CA3",
"%X c #BD9BA1",
"&X c #A3A3A4",
"*X c #A4A3AC",
"=X c #ACA1A1",
"-X c #ACABAC",
";X c #A5A3B4",
":X c #A5A5BB",
">X c #ACACB2",
",X c #AAAABE",
"<X c #AEB1B3",
"1X c #B4A4AC",
"2X c #BBA9AD",
"3X c #B3B3B3",
"4X c #B4B5BB",
"5X c #BBBCBC",
"6X c #AEAEC1",
"7X c #B2B2C4",
"8X c #B7B7C9",
"9X c #BCBBC3",
"0X c #BBBBCA",
"qX c #C58084",
"wX c #C29191",
"eX c #CE9C9E",
"rX c #D88080",
"tX c #C4A0A1",
"yX c #C6AAAF",
"uX c #D0B8BA",
"iX c #E58484",
"pX c #E88484",
"aX c #E98C8C",
"sX c #EB9494",
"dX c #EC9B9B",
"fX c #C5B9C1",
"gX c #C3C3C3",
"hX c #C2C2CC",
"jX c #CDCCCC",
"kX c #C5C5D2",
"lX c #CBCAD4",
"zX c #CECED8",
"xX c #D0CDD7",
"cX c #D2D2D3",
"vX c #D4D3DB",
"bX c #DAD5DC",
"nX c #DADADB",
"mX c #DBDBE2",
"MX c #E3E3E5",
"NX c #E4E4E9",
"BX c #E8E7EC",
"VX c #EAEAEC",
"CX c #EDEDF1",
"ZX c #F3F3F4",
"AX c #F6F6F8",
"SX c #FEFEFE",
"DX c None",
/* pixels */
"DXDXDXDXDXDXDXDXDXDX3.3.DXDXDXDXDXDXDXDXDXDX0 0 a g T._.DXDXDXDX",
"DXDXDXDXDXDX1.K K C v N C C G 1.3.3.3.3.0 0 e Y.(.!.-XDXDXDXDXDX",
"DXDXDXDXDX3.w.f.S.z.s.w.2.K G C * 3.3.z q !.5X<X_.OX1.3.3.DXDXDX",
"DXDXDX9.w.L.dXsXaXaXiXL.K.J.S.z.f.d.y.7 gX5X<X).,.3.3.3.3.3.a.DX",
"DXDXDXw.dXdXdXaXaXpXL.L.K.J.B.qXC.v.' 3XnXjX_.oXf.f.f.f.2.x.1._.",
"DXDX9.K.dXsXsXaXiXm.yX%XB.V.-.SXZX*.q ZXVXcX!.s.a.p.w.s.7.3.{.Y.",
"DXDXs.dXdXsXaXpXZ.1XSXBX=.k.X.SXAX_ /.SXZXVXT.i.p.w.9.a.8.oXY.g ",
"DXDXx.sXsXaXaXpXL.' ZXAXvXbXBXSXAX|.3XCXSXZX5X].w.9.9.a.OX/.(.a ",
"DXDXD.sXaXrX@Xn.K.:.MXZXAXAXAXSXSXMX.XMXVXSXZXgX].t.7.{.).3XI.e ",
"DXDXD.sXrXXXCXmX$XMXZXZXAXVXmXcXZXZX).MXjXVXSXZXjXT.T._.4X3Xe 0 ",
"DXDXS.aXM. XNXCXCXCXCXmXR.t t t 0 e 5XgXnXcXVXSXZXVXnXjXgXY.5 DX",
"DXDXv.pXrXb.3 mXBXBXkXj j i u y 0 cXgXnXVXcXcXVXSXZXVXnX#X4 1.DX",
"DXDXS.iXL.C.[ mXNXmXW.P.u c.A.+.jX<X3XVXNXgXnXMXVXSXnXY.8 V 3.DX",
"DXDXx.Z.$X}.`.mXmX4XQ.o.S.v.$.jX-X3XNXZXjXT._.!.&X .7 M 7.N 3.DX",
"DXDXx.] 8XzXmXmXmX>X(.c.S.$.jX<X3XMXZXcXs *XMXzX! T 3.w.7.N 3.DX",
"DXDXz.#.:X:X,X8XkX7X`.S.*.jX-X3XMXAXcXs U.hXmXMXm 4.3.0.P v 3.DX",
"DXDXz.B.$ > E.:X:XkX-X=.jX-X3XMXAXcXd $.*X9XmXmXzXfX>.4.P v 3.DX",
"DXDXz.J.N.&.p :X:XvX9XgX3X3XMXAXcXd h.oX4XhX7X7X7X6X..P P N 3.DX",
"DXDXz.H.c.M f ,X,XvXnXuX3XMXAXcXd j.F.2XlX8X:X:X9 | ^ 2.H b 3.DX",
"DXSXx.H.;.>X,X8X8X0XCXMXcXAXcXd j.G.eXcXBX6X,XE.c T 2.0.H b 3.DX",
"DXDXx.c.) '.6X,XhX0XvXCXNXvX<XtXuXcXMXCXkX8X7X .T e.0.0.H Z 3.DX",
"DXDXl.D.%.y w e (.lXlXmXZXZXBXBXVXCXCXvXkX0X8X6XP.q.0.9.Z Z 3.DX",
"DXDXi.S.v.&.&X!.e 0XvXmXnXMXVXZXCXMXvXzXlX9X*X6X;X~ 0.4.Z Z 3.DX",
"DXDX@.z.*.-X/.&X&XvXmXmXMXMXVXMXMXMXnXmX7X- n P./ 2.0.4.V I 3.DX",
"DXDX/.) .X!._.cX9XmXcX2 *XVXZXCXCXBXMXmX/.F g.5.7.0.9.4.V I 3.DX",
"DXDX< ).T./.jXnXT.&X{ c D ).ZXnX4 - #XMXxXW r.e.e.9.9.6.B U DXDX",
"DX, g Y./.gXnX3Xy Y G 0.J =XCXjXz R : nX#Xm e.0.0.9.3.R x L DXDX",
"+ g _.3X5XgX-Xy P 3.9.0.P ( ).[.Y r.6.l V e.0.0.9.9.4.R C DXDXDX",
"g I.DXDXgXI.2 ; % D G 4.9.2.0.Y e.e.e.e.0.0.0.9.9.4.Q 3.3.DXDXDX",
"T.Y.DXDX/.1 < DX  + # @ 9.9.0.% k V 2.0.9.9.9.9.J E J DXDXDXDXDX",
"-Xs #Xs , O                       . X o x v v N &             DX",
"DX_.0 , O                                               DXDXDXDX"
};
