/* XPM */
static char *kernel_remover[] = {
/* columns rows colors chars-per-pixel */
"32 32 242 2",
"   c #2F1313",
".  c #461515",
"X  c #5F1616",
"o  c #551818",
"O  c #670C0C",
"+  c #6D0A0A",
"@  c #601111",
"#  c #6E1717",
"$  c #721B1B",
"%  c #732020",
"&  c #713132",
"*  c #723B3C",
"=  c #583F45",
"-  c #424242",
";  c #565656",
":  c #7F4949",
">  c #69595E",
",  c #725454",
"<  c #7B5252",
"1  c #755E5E",
"2  c #725E67",
"3  c #745E6A",
"4  c #646365",
"5  c #6D6363",
"6  c #6A6068",
"7  c #6D6A6A",
"8  c #756464",
"9  c #77656A",
"0  c #7F6A6B",
"q  c #656570",
"w  c #6B6B75",
"e  c #7F6774",
"r  c #706C74",
"t  c #736B78",
"y  c #747474",
"u  c #7B7575",
"i  c #777778",
"p  c #7E7E7E",
"a  c #8C0D0D",
"s  c #9F0600",
"d  c #970800",
"f  c #9F0900",
"g  c #900E0E",
"h  c #9D0E0E",
"j  c #8B1919",
"k  c #9B1616",
"l  c #9A1916",
"z  c #921D1E",
"x  c #A40400",
"c  c #AC0400",
"v  c #A30A01",
"b  c #AB0B01",
"n  c #A50F0B",
"m  c #AB0C0A",
"M  c #B70100",
"N  c #BB0602",
"B  c #B20805",
"V  c #B60908",
"C  c #BC0C0C",
"Z  c #AC1100",
"A  c #B41400",
"S  c #BD1700",
"D  c #A61111",
"F  c #AF1C1C",
"G  c #B61414",
"H  c #B91A1A",
"J  c #8C2121",
"K  c #843737",
"L  c #913F3F",
"P  c #9B3C3C",
"I  c #A42222",
"U  c #AD2324",
"Y  c #A52929",
"T  c #A92A2A",
"R  c #BD2121",
"E  c #AC3335",
"W  c #C30000",
"Q  c #C90101",
"!  c #C40D0D",
"~  c #CB0B0B",
"^  c #D10202",
"/  c #D40B0B",
"(  c #C11000",
")  c #C61111",
"_  c #CB1313",
"`  c #C51B1B",
"'  c #CB1918",
"]  c #D21313",
"[  c #D91212",
"{  c #D31A1A",
"}  c #DD1C1C",
"|  c #C42929",
" . c #CF2C2C",
".. c #D62323",
"X. c #D72A2A",
"o. c #D92F2F",
"O. c #CE3F3F",
"+. c #D83131",
"@. c #DA3C3C",
"#. c #8D3A42",
"$. c #8A454B",
"%. c #9C4545",
"&. c #97494A",
"*. c #935C5C",
"=. c #9B5C5F",
"-. c #A34242",
";. c #A74F4F",
":. c #B14343",
">. c #B54E4E",
",. c #BB4F4F",
"<. c #B14F52",
"1. c #AB5454",
"2. c #AF5E5E",
"3. c #B25454",
"4. c #B55D5E",
"5. c #8F636F",
"6. c #8F686A",
"7. c #9C676C",
"8. c #97686E",
"9. c #8F6D78",
"0. c #92737E",
"q. c #987578",
"w. c #AD6166",
"e. c #AF696E",
"r. c #B4676F",
"t. c #BD6D6D",
"y. c #B17173",
"u. c #BF7D7F",
"i. c #C64141",
"p. c #CD4949",
"a. c #D24646",
"s. c #DC4444",
"d. c #DB4B4B",
"f. c #CD5B5B",
"g. c #DD5252",
"h. c #D65B5B",
"j. c #DB5E5E",
"k. c #E34F4F",
"l. c #F34141",
"z. c #F94B4B",
"x. c #E35555",
"c. c #E15A5A",
"v. c #C36566",
"b. c #CA6B6B",
"n. c #D66969",
"m. c #DB6B6B",
"M. c #CA7779",
"N. c #D67777",
"B. c #DE7474",
"V. c #D17A7B",
"C. c #DD7D7D",
"Z. c #E26565",
"A. c #E46B6B",
"S. c #E57474",
"D. c #E57B7B",
"F. c #7C7C87",
"G. c #7C7C88",
"H. c #817984",
"J. c #9E7D83",
"K. c #AC7982",
"L. c #C17E82",
"P. c #848485",
"I. c #82828B",
"U. c #878989",
"Y. c #8C8B8B",
"T. c #928F8F",
"R. c #9C8B8B",
"E. c #868693",
"W. c #8A8A94",
"Q. c #8E8E99",
"!. c #918697",
"~. c #968D91",
"^. c #949494",
"/. c #9A9595",
"(. c #95959A",
"). c #9C9B9C",
"_. c #A18383",
"`. c #AC8C8C",
"'. c #BC8181",
"]. c #BB8D8D",
"[. c #A78C91",
"{. c #A49397",
"}. c #A49F9F",
"|. c #B0989F",
" X c #9797A0",
".X c #9B9BAF",
"XX c #A19EA5",
"oX c #B59AA0",
"OX c #A3A3A4",
"+X c #ACA1A1",
"@X c #A5A4AB",
"#X c #AEADAD",
"$X c #B7A6AE",
"%X c #B1AEAF",
"&X c #BBA9AD",
"*X c #A5A2B3",
"=X c #ACACB3",
"-X c #A6A6BB",
";X c #ABABBE",
":X c #AFB1B3",
">X c #B4B4B4",
",X c #B4B5BB",
"<X c #BCBCBD",
"1X c #D88080",
"2X c #C29191",
"3X c #C2999F",
"4X c #D09D9F",
"5X c #E58484",
"6X c #E98585",
"7X c #EA8C8C",
"8X c #EB9494",
"9X c #ED9B9B",
"0X c #C5A1A4",
"qX c #CAABB0",
"wX c #D2B9BB",
"eX c #AEAEC2",
"rX c #B3B3C5",
"tX c #BCBCC4",
"yX c #B7B7C9",
"uX c #BBBBCB",
"iX c #C6B9C1",
"pX c #C2C2C2",
"aX c #C8C7C7",
"sX c #C2C2CC",
"dX c #CDCDCD",
"fX c #C6C6D3",
"gX c #CBCBD4",
"hX c #CECED8",
"jX c #D0CDD7",
"kX c #D3D2D4",
"lX c #D4D4DC",
"zX c #DAD5DC",
"xX c #DBDBDC",
"cX c #DBDBE3",
"vX c #E3E3E5",
"bX c #E5E5EA",
"nX c #EAEAEC",
"mX c #EDEDF2",
"MX c #F4F4F5",
"NX c #F7F7F9",
"BX c #FCFCFD",
"VX c None",
/* pixels */
"VXVXVXVXVXVXVXVXVXVXVXVXVXVXVXVXVXVXVXVXVXVXVXVXy p Y.VXVXVXVXVX",
"VXVXVXVXVXVXVXN N c f x x c M W VXVXVXVXVX4 7 U.(.^.VXVXVXVXVXVX",
"VXVXVXVXVXQ { @.g.s.o.' ! N B b v s s l 5 ^.<X:X/.2XVXVXVXVXVXVX",
"VXVXVXVX] D.9X8X7X7X6XD.D.A.x.s.@.+. .1 <XpX:X(.t.Q Q Q Q Q VXVX",
"VXVXVX{ 9X9X8X8X7X6XD.D.S.A.n.L.v.g.*.>XxXdX).'.@.@.@.s.~ d.VXVX",
"VXVXVXS.9X8X8X7X5XV.qX0Xm.A.w.BXMX<.5 MXnXkXT.+.X...{ o._ Q `.U.",
"VXVXo.9X9X8X7X6XN.$XBXnX4.f.8.BXNX&.^.BXNXnXY.O...{ ^ X.' '.Y.p ",
"VXVXd.9X8X7X7X6XD.=.MXBXkXzXnXBXBX{.>XnXBXNX<X_.{ ^ ^ X.].^.^.y ",
"VXVXc.8X8X1X3XM.B.y.vXNXNXNXNXNXBXbX).vXnXBXMXaX_.| _ `.(.,XP.VX",
"VXVXc.8X5XJ.nXcXoXvXMXMXMXnXxXkXMXNX).vXkXnXBXMXdXY.Y.).,X,X7 VX",
"VXVXx.7XC.~.bXmXmXmXmXxXE.w w w q w <XpXxXkXnXBXNXnXxXdXpXP.: VX",
"VXVXg.6X5X2.> cXnXnXgXF.G.r 9 9 4 dXpXxXbXkXkXnXBXNXnXxX)., VXVX",
"VXVXg.6XD.S.7.cXbXcXW.I.6.g.k.;.dX#X>XnXvXpXxXvXnXBXxXU.< n VXVX",
"VXVXd.C.|.[.XXcXvX,XQ.q.x.x.1.dX#X>XvXNXdXU.(.^.OXp 1 P _ x VXVX",
"VXVXd.b.yXlXcXcXcX=X(.h.x.1.dX#X>XvXNXkXi @XbXhXT ) ^ ] ) x VXVX",
"VXVXs.v.-X-X;XyXfX,XXXx.3.dX#X>XvXNXkXi I.sXcXcXE ~ Q / ! s VXVX",
"VXVXs.n.* = E.-X-XaX=X3.dX#X>XvXNXkXu 1.@XsXcXcXjXiXr.~ C s VXVX",
"VXVXs.A.Z.,.t -X-XzXtXaX#X>XvXNXkXu i.u.,XsXrXrXrXeX5.~ C s VXVX",
"VXVXd.Z.j.-.H.;XeXlXcX<X>XvXNXkXu p.l.&XgXyX-X-X3 e #.~ V f VXVX",
"VXVXd.Z.e.*X;XrXrXuXMXcXkXNXkXu p.z.4XlXbXeX;X!.G ] ~ / B v VXVX",
"VXVXd.c.L .XeX;XsXuXlXMXbXlX>X0XwXkXbXmXfXrXrX9.' [ / / B v VXVX",
"VXVXa.c.:.2 6 y  XgXgXlXMXmXnXnXmXmXMXlXsXuXyXrXK.] / / m b VXVX",
"VXVXi.x.d.%.#X).p tXlXzXcXvXmXmXnXvXlXhXgXtX@XrX*XU / / m Z VXVX",
"VXVXVXs.>.#X/.OX@XlXcXvXbXbXbXbXvXvXcXcXtX& z 0.$.! / ~ n A VXVX",
"VXVXVX%.}.Y.).<X,XcXkX5 %XnXMXMXnXnXbXcX~.F } ' _ / ^ ~ n A VXVX",
"VXVXVX/.Y./.aXxX^.OX0 h a ^.MXxX, & ).vXkXY } [ / / ^ ` v S VXVX",
"VXVXp U.^.pXxX<X8 h V / _ +XMXdXk } K xX).E [ / / ^ ^ R d ( VXVX",
"VXp VXVX<XpX#X8 C ^ ^ / ~ *./.R.G } ' j g ! / / ^ ^ ! H c VXVXVX",
"p P.VXVXVXP.4 * J D V Q ^ V m C ] [ [ [ / / / ^ ^ Q U Q VXVXVXVX",
"Y.Y.VXVXVX; VXVXVXVXVXVXo @ O + a m ! / ^ ^ ^ ^ G I VXVXVXVXVXVX",
"VXi ).i - VXVXVXVXVXVXVXVXVXVXVXVXVX  . X # $ % VXVXVXVXVXVXVXVX",
"VXVX4 - VXVXVXVXVXVXVXVXVXVXVXVXVXVXVXVXVXVXVXVXVXVXVXVXVXVXVXVX"
};
