/* XPM */
static char *kernel_remover___[] = {
/* columns rows colors chars-per-pixel */
"16 16 195 2",
"   c #6C1010",
".  c #713B3D",
"X  c #694949",
"o  c #7F5D68",
"O  c #65656B",
"+  c DimGray",
"@  c #726262",
"#  c #6E6C77",
"$  c #767676",
"%  c #7E7475",
"&  c #74747F",
"*  c gray47",
"=  c #860909",
"-  c #980C0C",
";  c #811212",
":  c #9B1A1A",
">  c #AB0503",
",  c #AC0500",
"<  c #A20803",
"1  c #A70804",
"2  c #A30D0D",
"3  c #B10403",
"4  c #B90505",
"5  c #BD0D0D",
"6  c #A31F1F",
"7  c #BA1010",
"8  c #BC1111",
"9  c #B21D1D",
"0  c #BF181A",
"q  c #BA1E1B",
"w  c #9F2B2A",
"e  c #AE3B3F",
"r  c #C80000",
"t  c #C90505",
"y  c #CC0707",
"u  c #C40808",
"i  c #CD0D0D",
"p  c #CD0E0E",
"a  c #D10707",
"s  c #D40707",
"d  c #D40808",
"f  c #D10E0E",
"g  c #D60F0F",
"h  c #C21111",
"j  c #CF1C1C",
"k  c #D51212",
"l  c #D41313",
"z  c #D11717",
"x  c #D41616",
"c  c #D91111",
"v  c #DA1313",
"b  c #D41D1D",
"n  c #C02022",
"m  c #C72B29",
"M  c #C33537",
"N  c #D73232",
"B  c #D93434",
"V  c #D43E3C",
"C  c #8D3B41",
"Z  c #924F4F",
"A  c #9C484F",
"S  c #9B4E4E",
"D  c #9D4D4D",
"F  c #A54C4D",
"G  c #BB4848",
"H  c #A65252",
"J  c #A3595A",
"K  c #B2595B",
"L  c #876969",
"P  c #887D7D",
"I  c #9F7479",
"U  c #937B7F",
"Y  c #A36A6A",
"T  c #B66E6E",
"R  c #A16E76",
"E  c #B87070",
"W  c #B07579",
"Q  c #D24646",
"!  c #D04C4C",
"~  c #DE5050",
"^  c #DE5151",
"/  c #DE5353",
"(  c #DF5353",
")  c #DD5F5F",
"_  c #E05757",
"`  c #D86868",
"'  c #E36666",
"]  c #E46C6C",
"[  c #E46D6D",
"{  c #E57171",
"}  c #797783",
"|  c #917982",
" . c #868787",
".. c #8D8A8A",
"X. c #88888D",
"o. c #8D8D8D",
"O. c #8E8E8E",
"+. c #938787",
"@. c #8A8992",
"#. c #8B8B9E",
"$. c gray58",
"%. c #979696",
"&. c #9A9597",
"*. c #9A9898",
"=. c #9D9C9D",
"-. c #A88787",
";. c #AA8686",
":. c #A78E8E",
">. c #AA8B8B",
",. c #A4999E",
"<. c #B4959A",
"1. c #BE959A",
"2. c #B2999D",
"3. c #9E9EA5",
"4. c #9999AA",
"5. c #9E9DB2",
"6. c #A19EA6",
"7. c #A29FAF",
"8. c #A5A7A9",
"9. c #A4A4AA",
"0. c #A5A7AA",
"q. c #AFAFB7",
"w. c #B2B0B0",
"e. c gray70",
"r. c #B4B4B4",
"t. c #B6B6B6",
"y. c #B7B7B7",
"u. c #B9B7B7",
"i. c #B1B1B9",
"p. c #B4B2BA",
"a. c #B6B4B8",
"s. c #B1B1BE",
"d. c #BDB6BB",
"f. c #BCBCBC",
"g. c #C98588",
"h. c #C1888E",
"j. c #D08688",
"k. c #D68F93",
"l. c #E28383",
"z. c #E88787",
"x. c #EB9191",
"c. c #E99393",
"v. c #EC9A9A",
"b. c #C5B5BB",
"n. c #C3BFBF",
"m. c #CEBABE",
"M. c #AEAEC1",
"N. c #B4B4C7",
"B. c #BAB9C6",
"V. c #BEBEC5",
"C. c #B9B9C8",
"Z. c #BEBECD",
"A. c #C1C1C1",
"S. c #C6C6C6",
"D. c #CACACA",
"F. c #C4C4D3",
"G. c #C5C5D3",
"H. c #CBCAD2",
"J. c #D1D0D0",
"K. c #D2D0D0",
"L. c #D2D1D1",
"P. c #D1D1D5",
"I. c #D0D0D9",
"U. c #D2D2DB",
"Y. c #D4D4DB",
"T. c #D5D5DC",
"R. c #D6D6DE",
"E. c #D8D8D8",
"W. c gray85",
"Q. c gray86",
"!. c #DBDBDF",
"~. c #DCDCDD",
"^. c #DBDBE1",
"/. c #DDDDE2",
"(. c #DBDBE4",
"). c #E0DEE3",
"_. c #E2E2E5",
"`. c #E2E2E7",
"'. c #E4E4E4",
"]. c gray90",
"[. c #E6E6E6",
"{. c #E5E5E9",
"}. c #E5E5EA",
"|. c #E9E9E9",
" X c #E8E8EB",
".X c #EAEAEA",
"XX c gray92",
"oX c #EAE8ED",
"OX c #EBEBF0",
"+X c #EFEFF3",
"@X c #F2F2F5",
"#X c #F3F3F5",
"$X c #F5F5F7",
"%X c #F6F6F6",
"&X c None",
/* pixels */
"&X&X&X&X&X&X&X&X&X&X&X+  .&X&X&X",
"&X&Xz ^ ] / V m q w *.8.E r &X&X",
"&Xb v.x.l.k.` 1.h.+.Q.;.B N t &X",
"&X~ c.z.W $X2.).d.D.%X:.l x T P ",
"&X{ j.b.<.+X@X X#Xf.XX|.>.-.0.@ ",
"&X[ g.H.OXq.& # O S.W.XX%XE...&X",
"&X' I i.Y.@.K D t.[.A.e.f.L 9 &X",
"&X) N.F.V.,.H y.'.J.X.(.n a u &X",
"&X_ . #.C.a.y.].L.J p.G.B.e 4 &X",
"&X( R 4.M./.~.K.G m.I.5.C 0 3 &X",
"&X! o } s.U.{.!._.oXZ.7.M g > &X",
"&XQ S %.3.R.^.}.`.T.6.| A f 1 &X",
"&XX $.r.9.% &..X=.P.U j c p < &X",
"&Xo.u.w.6 y Z n.; Y F v d h , &X",
"* &XO.&X: 2 - = 7 k i s 5 8 &X&X",
"&X$ &X&X&X&X&X&X&X&X  &X&X&X&X&X"
};
