/* XPM */
static char *kernel_remover_16[] = {
/* columns rows colors chars-per-pixel */
"16 16 156 2 ",
"   c black",
".  c #020202",
"X  c gray1",
"o  c #020305",
"O  c #0C0C0C",
"+  c #111111",
"@  c #2D2D2E",
"#  c #6F4F1E",
"$  c #70501F",
"%  c #5A4F3A",
"&  c #6E552E",
"*  c #795925",
"=  c #765A30",
"-  c #78623E",
";  c #32445A",
":  c #595044",
">  c #444A51",
",  c #6C5D41",
"<  c #796645",
"1  c #7E6E51",
"2  c #7F7155",
"3  c #495960",
"4  c #5A5C75",
"5  c #58677D",
"6  c #676767",
"7  c #676A7A",
"8  c #777673",
"9  c #A27113",
"0  c #856434",
"q  c #846736",
"w  c #94713A",
"e  c #97753F",
"r  c #9C7944",
"t  c #947C52",
"y  c #987C5A",
"u  c #A17E48",
"i  c #A27F54",
"p  c #A9A12D",
"a  c #BEBE30",
"s  c #FFC000",
"d  c #FDDB02",
"f  c #9A885B",
"g  c #A78559",
"h  c #A6885E",
"j  c #AE8959",
"k  c #AE8B5E",
"l  c #B18B5C",
"z  c #B6915D",
"x  c #BB935E",
"c  c #BC945E",
"v  c #978066",
"b  c #9C8465",
"n  c #8C8570",
"m  c #8B8776",
"M  c #AD8C63",
"N  c #B69360",
"B  c #B99062",
"V  c #BE9361",
"C  c #BA9560",
"Z  c #BE9666",
"A  c #BB9D6C",
"S  c #A68F72",
"D  c #A28D75",
"F  c #A58F74",
"G  c #A79171",
"H  c #A99072",
"J  c #AB9473",
"K  c #AE9674",
"L  c #AA9879",
"P  c #B29772",
"I  c #B69872",
"U  c #B69A72",
"Y  c #B39877",
"T  c #B39977",
"R  c #B39E7E",
"E  c #C29461",
"W  c #C69E64",
"Q  c #C99D68",
"!  c #C8A269",
"~  c #C9A06A",
"^  c #3A6396",
"/  c #4C709C",
"(  c #567292",
")  c #51749F",
"_  c #457BBC",
"`  c #4B7EBA",
"'  c #6081AA",
"]  c #6689B0",
"[  c #6B8EB7",
"{  c #628ABB",
"}  c #7791B3",
"|  c #7C9ECB",
" . c #6E95D0",
".. c #898B86",
"X. c #959186",
"o. c gray60",
"O. c #9D9E98",
"+. c #A1988B",
"@. c #B6A487",
"#. c #B7A68D",
"$. c #B5AD9E",
"%. c #95A9BE",
"&. c #AFB2AB",
"*. c #A1AFBE",
"=. c #A2B0BE",
"-. c #B2B5B1",
";. c #B4B4BC",
":. c #C3A780",
">. c #C2AB89",
",. c #C3AD8F",
"<. c #C8B496",
"1. c #C2B49B",
"2. c #CAB89C",
"3. c #EDC982",
"4. c #D2C4AE",
"5. c #C0C1BD",
"6. c #C2C4BE",
"7. c #81A1D5",
"8. c #99B4DC",
"9. c #B3BCC5",
"0. c #BFC4C5",
"q. c #B7C7E1",
"w. c #C8CCC4",
"e. c #CACCC8",
"r. c #D2D6CE",
"t. c #DED5CC",
"y. c #CFD3D3",
"u. c #D4D5D0",
"i. c #D7D8D3",
"p. c #D7DBD4",
"a. c #D9DBD6",
"s. c #DBDED7",
"d. c gray85",
"f. c #DADCD9",
"g. c #D8DDDA",
"h. c #CFD8E6",
"j. c #DFE2E7",
"k. c #E3E4E1",
"l. c #E4E5E3",
"z. c #E5E7E2",
"x. c #E6E8E4",
"c. c #E7E8E5",
"v. c #E9EAE4",
"b. c #E8E9E6",
"n. c #E9EAE6",
"m. c #E8EAE7",
"M. c #E9EAE7",
"N. c #E9EBE7",
"B. c #EAEAE6",
"V. c #E9EAE8",
"C. c #EAEBE8",
"Z. c #EBECE9",
"A. c #EFEFE8",
"S. c #ECEEEA",
"D. c #EEF0EC",
"F. c None",
/* pixels */
"@.F.F.F.e.5.-.F.F.F.F.F.F.F.F.F.",
"2.4.F.u.C.M.M.x.x.M.M.M.l.% F.F.",
"F.J F.i.*.%.=.9.y.l.M.l.6.& F.F.",
"F.P F.a.[ ) > ; ^ ` { g.O.F.F.F.",
"F.<.1.f.] @ +   o _  .s.m F.F.F.",
"F.F.G 0.( o.+ 6   / 7.p.2 F.F.F.",
"F.F.D +.3 a p 8 O ' 8.r.< F.F.F.",
"F.F.F S f d s 9 X | q.w.- F.F.F.",
"F.F.T U :.A 3.$.X } h.&.= F.F.F.",
"F.F.R M U K t.d.  5 j.X.# 0 F.F.",
"F.F.#.y b T H ;.7 4 B.n * $ w F.",
"F.F.L k i M h ,.B.D.D.1 F.e w g ",
"F.F.F.N j l Z g >.A.S., F.F.t q ",
"F.F.F.~ c z V B c v ..: F.F.F.F.",
"F.F.F.Q c W E ~ F.F.F.F.F.F.F.F.",
"F.F.F.F.F.F.F.F.F.F.F.F.F.F.F.F."
};
