/* XPM */
static char *kernel_remover___[] = {
/* columns rows colors chars-per-pixel */
"16 16 160 2",
"   c black",
".  c #010101",
"X  c #020202",
"o  c #020305",
"O  c #0C0C0C",
"+  c #101010",
"@  c #111111",
"#  c #2D2D2E",
"$  c #6E4F1F",
"%  c #70501F",
"&  c #534638",
"*  c #594E3A",
"=  c #6E552E",
"-  c #795825",
";  c #745A2F",
":  c #78623E",
">  c #32435A",
",  c #595143",
"<  c #434950",
"1  c #6D5C41",
"2  c #796645",
"3  c #7E6E50",
"4  c #525F62",
"5  c #5A5C75",
"6  c #58677D",
"7  c #676767",
"8  c #77736C",
"9  c #66697A",
"0  c #777673",
"q  c #A27113",
"w  c #836534",
"e  c #856736",
"r  c #93713A",
"t  c #97743F",
"y  c #9B7944",
"u  c #807155",
"i  c #9C7554",
"p  c #947B52",
"a  c #A17E48",
"s  c #A9A12D",
"d  c #BEBE30",
"f  c #FFC000",
"g  c #FBD706",
"h  c #96875A",
"j  c #9F835D",
"k  c #9C825F",
"l  c #A48054",
"z  c #A5865C",
"x  c #A4845E",
"c  c #A9875B",
"v  c #AE8B59",
"b  c #B7875C",
"n  c #B9905E",
"m  c #BC925E",
"M  c #99856B",
"N  c #8C8370",
"B  c #8B8676",
"V  c #A58760",
"C  c #A68A63",
"Z  c #A38967",
"A  c #AB8960",
"S  c #AE8D61",
"D  c #AC8C66",
"F  c #A68C6B",
"G  c #A08A6C",
"H  c #AD9169",
"J  c #AF9469",
"K  c #BB9360",
"L  c #BC9361",
"P  c #BA9663",
"I  c #B2936B",
"U  c #B59569",
"Y  c #B7966B",
"T  c #BC996A",
"R  c #A99373",
"E  c #B19772",
"W  c #B49775",
"Q  c #BC9E75",
"!  c #B89B78",
"~  c #BCA27D",
"^  c #C0996A",
"/  c #C69D6A",
"(  c #C1A26B",
")  c #CCA46B",
"_  c #D4A76A",
"`  c #D4A96D",
"'  c #D4AA6D",
"]  c #396396",
"[  c #4C6F9C",
"{  c #557191",
"}  c #51739F",
"|  c #467BBC",
" . c #4A7DBA",
".. c #5F80AA",
"X. c #6688AF",
"o. c #6A8DB6",
"O. c #6088BB",
"+. c #7791B3",
"@. c #7B9DCB",
"#. c #6D94D0",
"$. c #878A87",
"%. c #949186",
"&. c #9D9E97",
"*. c gray60",
"=. c #AE9982",
"-. c #AA9B87",
";. c #B4A086",
":. c #B6A487",
">. c #BFA581",
",. c #BEAF96",
"<. c #B5AD9E",
"1. c #94A8BD",
"2. c #B0B2AB",
"3. c #A1AFBE",
"4. c #A2AFBE",
"5. c #B3B4B1",
"6. c #B4B2B6",
"7. c #B9BAB5",
"8. c #C0AC8F",
"9. c #C5B59E",
"0. c #CBB99B",
"q. c #BFC1BD",
"w. c #EEC982",
"e. c #D1C3AC",
"r. c #C1C3BE",
"t. c #809FD5",
"y. c #98B2DC",
"u. c #B3BCC5",
"i. c #B7C7E1",
"p. c #C8CBC4",
"a. c #C9CBC8",
"s. c #D2D5CE",
"d. c #CED2D3",
"f. c #D2D5D1",
"g. c #D6D8D3",
"h. c #D7DAD3",
"j. c #D9DAD6",
"k. c #DCDFD7",
"l. c gray85",
"z. c #DADCD8",
"x. c #D8DCDA",
"c. c #E1DACD",
"v. c #E3DCD4",
"b. c #CFD7E5",
"n. c #DEE2E6",
"m. c #E2E4E1",
"M. c #E4E5E2",
"N. c #E4E6E2",
"B. c #E6E7E3",
"V. c #E7E8E4",
"C. c #E8E9E5",
"Z. c #E9E9E6",
"A. c #E8EAE6",
"S. c #E9EAE6",
"D. c #E9EAE7",
"F. c #EBEBE7",
"G. c #EAEBE8",
"H. c #EFEEEA",
"J. c #EEEFEB",
"K. c None",
/* pixels */
":.K.K.K.a.q.5.K.K.K.K.K.K.K.K.K.",
"0.e.K.f.C.C.C.V.V.C.D.G.m.* K.K.",
"K.R K.g.4.1.4.u.d.M.C.N.r.= K.K.",
"K.E K.j.o.} < > ]  .O.z.&.K.K.K.",
"K.8.,.z.X.# @   o | #.k.B K.K.K.",
"K.M G 7.{ *.@ 7   [ t.h.u K.K.K.",
"K.k F -.4 d s 0 O X.y.s.2 K.K.K.",
"K.V I W h g f q   @.i.p.: K.K.K.",
"K.z D Q >.( w.<.  +.b.2.; K.K.K.",
"K.c C A I -.v.l.  6 n.%.$ w K.K.",
"K.Y J z Z ! ;.6.9 5 G.N - % r K.",
"K.U ^ P i ^ H ( c.G.J.3 K.y t a ",
"K.K.) ' n L / k 9.J.G.1 K.K.p e ",
"K.K._ ' m v b i & 8 $., K.K.K.K.",
"K.K.K.L K.K.K.K.K.K.K.K.K.K.K.K.",
"K.K.K.K.K.K.K.K.K.K.K.K.K.K.K.K."
};
