/* XPM */
static char *kernel_remover___[] = {
/* columns rows colors chars-per-pixel */
"16 16 157 2",
"   c #000000",
".  c #020202",
"X  c #030303",
"o  c #020305",
"O  c #0C0C0C",
"+  c #111111",
"@  c #2D2D2E",
"#  c #6F4F1F",
"$  c #70501F",
"%  c #5B4F3A",
"&  c #6E552E",
"*  c #795925",
"=  c #755A30",
"-  c #78633E",
";  c #32445A",
":  c #595144",
">  c #444A51",
",  c #48585F",
"<  c #6D5C41",
"1  c #796645",
"2  c #7E6E51",
"3  c #5A5C75",
"4  c #58677D",
"5  c #676767",
"6  c #676A7A",
"7  c #777673",
"8  c #A27113",
"9  c #856534",
"0  c #856736",
"q  c #94713A",
"w  c #97753F",
"e  c #9C7A44",
"r  c #807155",
"t  c #947B52",
"y  c #997C59",
"u  c #A17E48",
"i  c #A17F54",
"p  c #A9A12D",
"a  c #BEBE30",
"s  c #FFC000",
"d  c #FDDB02",
"f  c #9A885D",
"g  c #A78559",
"h  c #A6885E",
"j  c #AF8859",
"k  c #AD8B5F",
"l  c #B18B5C",
"z  c #B6915D",
"x  c #BC935D",
"c  c #BD945E",
"v  c #968066",
"b  c #9C8565",
"n  c #8C8570",
"m  c #8C8677",
"M  c #AC8C63",
"N  c #AD8C63",
"B  c #B69360",
"V  c #B99062",
"C  c #BE9361",
"Z  c #BA9560",
"A  c #BE9666",
"S  c #BB9D6C",
"D  c #A68F71",
"F  c #A48E73",
"G  c #A28D76",
"H  c #A69171",
"J  c #A99072",
"K  c #AA9473",
"L  c #AE9674",
"P  c #AA9779",
"I  c #B29772",
"U  c #B69871",
"Y  c #B69A72",
"T  c #B19877",
"R  c #B39877",
"E  c #B49E7E",
"W  c #C29461",
"Q  c #C69E64",
"!  c #C89D68",
"~  c #C9A369",
"^  c #C9A06A",
"/  c #3A6396",
"(  c #4C709C",
")  c #567292",
"_  c #51749F",
"`  c #467BBC",
"'  c #4B7EBA",
"]  c #6081AA",
"[  c #6689B0",
"{  c #6B8EB7",
"}  c #618ABB",
"|  c #7791B3",
" . c #7C9ECB",
".. c #6D94D0",
"X. c #888B86",
"o. c #949186",
"O. c #999999",
"+. c #9D9E98",
"@. c #A2998B",
"#. c #B7A487",
"$. c #B7A78D",
"%. c #B5AD9E",
"&. c #95A9BE",
"*. c #B0B2AB",
"=. c #A1AFBE",
"-. c #A2B0BE",
";. c #B3B5B1",
":. c #B4B4BC",
">. c #C3A780",
",. c #C3AB89",
"<. c #C3AD8F",
"1. c #C8B396",
"2. c #C2B49B",
"3. c #CBB99B",
"4. c #BFC1BD",
"5. c #EDC982",
"6. c #D1C4AD",
"7. c #C2C4BF",
"8. c #80A1D5",
"9. c #99B4DC",
"0. c #B3BCC5",
"q. c #BEC4C5",
"w. c #B7C7E1",
"e. c #C8CCC4",
"r. c #CACCC8",
"t. c #D2D6CE",
"y. c #DED5CC",
"u. c #CED3D3",
"i. c #D4D5D1",
"p. c #D7D8D3",
"a. c #D7DBD4",
"s. c #D9DBD6",
"d. c #D9D9D9",
"f. c #DADCD9",
"g. c #D8DDDA",
"h. c #DCDFD8",
"j. c #CFD8E6",
"k. c #DFE2E7",
"l. c #E4E5E1",
"z. c #E4E5E3",
"x. c #E5E7E2",
"c. c #E6E8E4",
"v. c #E7E8E5",
"b. c #E9EAE4",
"n. c #E8E9E6",
"m. c #E9EAE6",
"M. c #E8EAE7",
"N. c #E9EAE7",
"B. c #E9EBE7",
"V. c #EAEAE6",
"C. c #EAEAE8",
"Z. c #EAEBE8",
"A. c #EBECE9",
"S. c #EFEFE8",
"D. c #ECEEEA",
"F. c #EEF0EC",
"G. c None",
/* pixels */
"#.G.G.G.r.4.;.G.G.G.G.G.G.G.G.G.",
"3.6.G.i.Z.N.N.c.c.N.N.N.z.% G.G.",
"G.K G.p.-.&.-.0.u.z.N.z.7.& G.G.",
"G.I G.s.{ _ > ; / ' } g.+.G.G.G.",
"G.1.2.f.[ @ +   o ` ..h.m G.G.G.",
"G.G.H q.) O.+ 5   ( 8.a.r G.G.G.",
"G.G.G @., a p 7 O ] 9.t.1 G.G.G.",
"G.G.F F f d s 8 X  .w.e.- G.G.G.",
"G.G.L I ^ S 5.%.X | j.*.= G.G.G.",
"G.G.E M E L y.d.X 4 k.o.# 9 G.G.",
"G.G.$.y b T J :.6 3 N.n * $ q G.",
"G.G.P M g M h <.N.S.F.2 G.e w u ",
"G.G.G.B j l A g ,.F.A.< G.G.t 0 ",
"G.G.G.^ c z C V c v X.: G.G.G.G.",
"G.G.G.! c Q W ^ G.G.G.G.G.G.G.G.",
"G.G.G.G.G.G.G.G.G.G.G.G.G.G.G.G."
};
