/* XPM */
static char *kernel_remover[] = {
/* columns rows colors chars-per-pixel */
"32 32 256 2",
"   c #010101",
".  c #090909",
"X  c #070C13",
"o  c #0B1015",
"O  c #141414",
"+  c #181818",
"@  c #221F11",
"#  c #363600",
"$  c #1A1A25",
"%  c #232424",
"&  c #272928",
"*  c #2D2D2D",
"=  c #3C372E",
"-  c #252D38",
";  c #313131",
":  c #3E3E3E",
">  c #555500",
",  c #5B431D",
"<  c #624416",
"1  c #6B4A1A",
"2  c #674919",
"3  c #704E1E",
"4  c #73511D",
"5  c #79561F",
"6  c #5B482E",
"7  c #484339",
"8  c #6C5229",
"9  c #755422",
"0  c #7D5A23",
"q  c #7A5925",
"w  c #61523A",
"e  c #7B5E31",
"r  c #745E3A",
"t  c #7A623E",
"y  c #223041",
"u  c #293F5D",
"i  c #3A4A5E",
"p  c #384D67",
"a  c #3E5977",
"s  c #444543",
"d  c #4B4B4B",
"f  c #5B5342",
"g  c #484F57",
"h  c #565655",
"j  c #6B5F46",
"k  c #635E50",
"l  c #6E624C",
"z  c #7A6745",
"x  c #77644B",
"c  c #6B6759",
"v  c #696458",
"b  c #515F71",
"n  c #516174",
"m  c #666765",
"M  c #777265",
"N  c #747573",
"B  c #7C7D75",
"V  c #835600",
"C  c #805E2A",
"Z  c #85632D",
"A  c #8A662E",
"S  c #8B6933",
"D  c #856533",
"F  c #906C35",
"G  c #94733D",
"H  c #915846",
"J  c #816642",
"K  c #976B47",
"L  c #8D7048",
"P  c #9E7C45",
"I  c #94754C",
"U  c #9E7D4A",
"Y  c #997646",
"T  c #8E7552",
"R  c #927651",
"E  c #9C7D53",
"W  c #937B5D",
"Q  c #997C56",
"!  c #A37C54",
"~  c #AB7C56",
"^  c #85796A",
"/  c #947F60",
"(  c #7E817B",
")  c #A7A00F",
"_  c #FFA701",
"`  c #FFAD00",
"'  c #F5AA02",
"]  c #FAB707",
"[  c #FBB52F",
"{  c #EBC508",
"}  c #FFC400",
"|  c #FFC800",
" . c #FFD200",
".. c #FFE000",
"X. c #FFEC00",
"o. c #FFF700",
"O. c #F3F30A",
"+. c #E2C929",
"@. c #AD8E4D",
"#. c #A68356",
"$. c #AD8255",
"%. c #AC8955",
"&. c #A4845B",
"*. c #AC845A",
"=. c #AC8A5C",
"-. c #B28C5D",
";. c #B18858",
":. c #B5925E",
">. c #B9935E",
",. c #9B8363",
"<. c #9C8669",
"1. c #9F896D",
"2. c #9F8F79",
"3. c #A28664",
"4. c #A58964",
"5. c #AB8A61",
"6. c #A48D6F",
"7. c #AD8F69",
"8. c #B28E61",
"9. c #AA916D",
"0. c #B69261",
"q. c #BA9462",
"w. c #B3946B",
"e. c #BC9768",
"r. c #BC9B6E",
"t. c #A18F78",
"y. c #AD9575",
"u. c #A0927A",
"i. c #AB977A",
"p. c #AB9674",
"a. c #B69972",
"s. c #BA9F79",
"d. c #B59774",
"f. c #B1B167",
"g. c #BDA17A",
"h. c #C69B62",
"j. c #C39866",
"k. c #C6A36E",
"l. c #D3A66B",
"z. c #C7A678",
"x. c #DCAF70",
"c. c #D8B277",
"v. c #325682",
"b. c #3264A1",
"n. c #496181",
"m. c #5C7187",
"M. c #4E6F99",
"N. c #57779B",
"B. c #667B99",
"V. c #4D78AC",
"C. c #4774A7",
"Z. c #557AA4",
"A. c #4178BD",
"S. c #617EA4",
"D. c #3F7FCE",
"F. c #447CC6",
"G. c #5A7EC3",
"H. c #6D839C",
"J. c #67819E",
"K. c #7A8C9D",
"L. c #71849A",
"P. c #5E80A4",
"I. c #6985A7",
"U. c #7788AD",
"Y. c #4281CF",
"T. c #5388C8",
"R. c #4B88D3",
"E. c #508AD3",
"W. c #5E93D7",
"Q. c #728BC5",
"!. c #7598C2",
"~. c #6C9EDD",
"^. c #789AD1",
"/. c #6FA0DD",
"(. c #76A3DD",
"). c #76A4E0",
"_. c gray53",
"`. c #878984",
"'. c #93958E",
"]. c #88849B",
"[. c #89949F",
"{. c #9C9C9C",
"}. c #989A95",
"|. c #A69781",
" X c #AF9E90",
".X c #A39C9E",
"XX c #9EA19C",
"oX c #BBA786",
"OX c #8888A3",
"+X c #8596A7",
"@X c #9C9AAE",
"#X c #94A2AF",
"$X c #9FA9B4",
"%X c #ACAEA9",
"&X c #AEB1AB",
"*X c #A0ACB7",
"=X c #A8B2BC",
"-X c #B4B5B3",
";X c #B9BBB5",
":X c #BEBEBE",
">X c #C5AD8B",
",X c #C5A983",
"<X c #CAB18B",
"1X c #C2B193",
"2X c #CBB494",
"3X c #CAB79A",
"4X c #C6B89C",
"5X c #C8BBA2",
"6X c #C1BEB3",
"7X c #BEC1BB",
"8X c #FED381",
"9X c #CEC1A7",
"0X c #D1C3AE",
"qX c #D2C1A4",
"wX c #D6CAB7",
"eX c #8A9CCE",
"rX c #9FACD7",
"tX c #B9BEC2",
"yX c #A2B2D5",
"uX c #82ADE4",
"iX c #8DB6EA",
"pX c #89B2E6",
"aX c #93BAEE",
"sX c #B7C0DF",
"dX c #BEC7DA",
"fX c #9CC1F0",
"gX c #A7C6F2",
"hX c #C6C9C2",
"jX c #C8CBC5",
"kX c #CDCFCA",
"lX c #C4C8C6",
"zX c #D0CEC4",
"xX c #CED2CA",
"cX c #D2D5CE",
"vX c #DED4C5",
"bX c #C2C5D3",
"nX c #D5D6D2",
"mX c #D6D9D3",
"MX c #DADCD6",
"NX c #D5DADC",
"BX c #DCDED9",
"VX c #E0DDD1",
"CX c #DEE1DB",
"ZX c #E2E3DD",
"AX c #CBD2E4",
"SX c #DFE3E9",
"DX c #E5E6E2",
"FX c #E7E8E5",
"GX c #E9EAE6",
"HX c #ECEDEA",
"JX c #E8E7E4",
"KX c #EFF0ED",
"LX c #F1F2EF",
"PX c #FFFCF7",
"IX c #FEFEFE",
"UX c None",
/* pixels */
"1X4XUXUXUXUXUXUXUXUXUXUXUXUXUXUXUXUXUXUXUXUXUXUXUXUXUXUXUXUXUXUX",
"5XoXwXUXUXUXUXhXMXmXkXhX7X;X&X%X%X%X%X&XUXUXUXUXUXUXUXUXUXUXUXUX",
"UX<XqXUXUXUXUXMXHXGXGXGXJXJXGXFXFXFXJXGXHXGXFXFXGXSXk UXUXUXUXUX",
"UX2XoXUXUXUXUXBXGXJXGXJXJXJXFXFXFXFXFXGXGXGXHXHXHXnXw UXUXUXUXUX",
"UX2X7.5XUXUXUXJXJXZXDXJXDXDXDXDXFXFXFXGXGXHXHXFXCX-X8 UXUXUXUXUX",
"UXUXg.1XUXUXjXFX*Xm.N.I.L.K.+X#X=XlXMXZXFXDXCXDXCX}.9 UXUXUXUXUX",
"UXUX>Xy.0XUXkXDXK.F.R.V.n g i a C.V.Z.P.I.S.mXVXBXN 5 UXUXUXUXUX",
"UXUX2X&.5XUXcXZXL.R.M.f y ; % O o b.D.Y.W.F.NXBXmXc 0 UXUXUXUXUX",
"UXUXUXz.oXUXNXDXB.T.s ; % + .     o b.R.(.T.CXCXcXl 0 UXUXUXUXUX",
"UXUXUX1X9.0XBXmXI.M.& + .           b.W.(.Q.mXMX;Xr UXUXUXUXUXUX",
"UXUXUX3Xw.5XMX:XU.p .X_.    O .     i ~.~.eXMXmXXXe UXUXUXUXUXUX",
"UXUXUXUXi.t.6X*X!.- m -X  h IX6X.   - (.~.yXmXmX( Z UXUXUXUXUXUX",
"UXUXUXUX1.<.|.+X^.% s f.# -X* ;X+   i ).(.dXnXcXm A UXUXUXUXUXUX",
"UXUXUXx 3.6.u.^ P.> O.o.X.+.@ &X.   n.iX(.NXcXxXk A UXUXUXUXUXUX",
"UXUXUXUX<.,.d.3.^ ) o. . .} ] t     S.iX^.mXmXhXl A UXUXUXUXUXUX",
"UXUXUXT ,.w.5.<X>Xp.{ | } ` _ 5     !.iXeXMXmX&Xt UXUXUXUXUXUXUX",
"UXUXUXQ &.w.5.g.,X,X@.' _ [ 8X7   . U.aXrXMXCX'.t UXUXUXUXUXUXUX",
"UXUXUXR 3.8.=.s.g.,Xi.0XPXIXIXN   . B.fXsXCXCXM 0 , UXUXUXUXUXUX",
"UXUXUXUX3.8.&.9.w.a.9.|.JXIXIX}.  . b gXAXZXBXc 0 4 t UXUXUXUXUX",
"UXUXUXUX4.-.&.Q 4.4.a.2. XIXIX:X    $ gXSXZXmXl 9 < 1 A k.UXUXUX",
"UXUXUXUX<.&.#.L 3.6.i.w.<..X@X].$     U.GXJXjXx 4 2 2 4 Z c.UXUX",
"UXUXUXUX6.,.W W ,.&.7.r.Q 6.zXDXFXbXK.OXGXGX-Xr q Z 9 9 C S z.UX",
"UXUXUXu.6.5.E &.U &.&.w.a.R y.MXJXHXHXHXHXHXXXq UXP S S A F F UX",
"UXUXUXUXI =.E *.! ! *.-.j.I *.i.VXJXHXKXLXHX`.4 UXUX@.G #.#.G F ",
"UXUXUXUX! q.=.%.$.! q.;.0.j.z =.3.wXZXKXLXJXB < UXUXUXUX:.%.P UX",
"UXUXUXUXUXe.h.q.;.q.#.:.$.e.*.I z 4.vXZXLXBXc , UXUXUXUXUXUXUXUX",
"UXUXUXUXUX:.x.q.%.h.#.:.~ q.j.J J x ^ }.-X-Xf w UXUXUXUXUXUXUXUX",
"UXUXUXUXUX:.l.x.>.h.$.#.*.~ -.K 6 UXUXUX& h = UXUXUXUXUXUXUXUXUX",
"UXUXUXUXUXI =.l.%.$.>.J E H UXUXUXUXUXUXUXUXUXUXUXUXUXUXUXUXUXUX",
"UXUXUXUXUXUXE $.J K UXUXUXUXUXUXUXUXUXUXUXUXUXUXUXUXUXUXUXUXUXUX",
"UXUXUXUXUXUXUXUXUXUXUXUXUXUXUXUXUXUXUXUXUXUXUXUXUXUXUXUXUXUXUXUX",
"UXUXUXUXUXUXUXUXUXUXUXUXUXUXUXUXUXUXUXUXUXUXUXUXUXUXUXUXUXUXUXUX"
};
