/* XPM */
static char *kernel_remover[] = {
/* columns rows colors chars-per-pixel */
"32 32 256 2 ",
"   c #010101",
".  c #090909",
"X  c #070C13",
"o  c #0B1015",
"O  c #141414",
"+  c #191919",
"@  c #221F11",
"#  c #363600",
"$  c #1A1A25",
"%  c #242424",
"&  c #2E2D2B",
"*  c #3C372E",
"=  c #252D38",
"-  c #313131",
";  c #3E3E3E",
":  c #555500",
">  c #5A431E",
",  c #634416",
"<  c #6B4B1B",
"1  c #73521E",
"2  c #79561F",
"3  c #484339",
"4  c #6C5329",
"5  c #765523",
"6  c #7D5A23",
"7  c #7B5B2A",
"8  c #614E34",
"9  c #61523A",
"0  c #7C5F32",
"q  c #745E3A",
"w  c #79623F",
"e  c #233042",
"r  c #29415E",
"t  c #34465D",
"y  c #384D67",
"u  c #3E5977",
"i  c #444543",
"p  c #4C4C4C",
"a  c #5B5443",
"s  c #484F57",
"d  c #555655",
"f  c #6C5F46",
"g  c #635F52",
"h  c #6D614A",
"j  c #766546",
"k  c #6B675A",
"l  c #6B6456",
"z  c #404F61",
"x  c #525F72",
"c  c #516174",
"v  c #666765",
"b  c #68686A",
"n  c #787265",
"m  c #747673",
"M  c #7C7D76",
"N  c #835600",
"B  c #815E2B",
"V  c #89652E",
"C  c #83622D",
"Z  c #8A6732",
"A  c #8D6933",
"S  c #816435",
"D  c #906C35",
"F  c #96733D",
"G  c #856B49",
"H  c #8D6E49",
"J  c #8C704C",
"K  c #997740",
"L  c #93744D",
"P  c #9A754A",
"I  c #9D7A44",
"U  c #8A7154",
"Y  c #8A7559",
"T  c #9C7D53",
"R  c #9F7F58",
"E  c #947956",
"W  c #A07E49",
"Q  c #A37D52",
"!  c #A37F59",
"~  c #A87954",
"^  c #847A6A",
"/  c #8F7E6A",
"(  c #917F67",
")  c #7E817C",
"_  c #AAA807",
"`  c #EEA805",
"'  c #FFA701",
"]  c #FFAD00",
"[  c #FFBB00",
"{  c #F5B30D",
"}  c #FBB52F",
"|  c #EDC809",
" . c #FFC500",
".. c #FFC900",
"X. c #FFD300",
"o. c #FFE000",
"O. c #FFEC00",
"+. c #FFF800",
"@. c #F3F30A",
"#. c #E2C929",
"$. c #9A815F",
"%. c #A58255",
"&. c #AC8A56",
"*. c #A4845B",
"=. c #AC855C",
"-. c #AD8A5C",
";. c #A88654",
":. c #B38D5D",
">. c #B38659",
",. c #BC925D",
"<. c #B5955F",
"1. c #9A866D",
"2. c #9C896D",
"3. c #97826A",
"4. c #988875",
"5. c #A58A64",
"6. c #AD8B62",
"7. c #A1896A",
"8. c #A88E6B",
"9. c #A58765",
"0. c #B38E62",
"q. c #BD8E64",
"w. c #AD926C",
"e. c #A7946C",
"r. c #B49264",
"t. c #BA9563",
"y. c #BE9865",
"u. c #B2946C",
"i. c #BA9A6F",
"p. c #A38E72",
"a. c #AC9679",
"s. c #B59A74",
"d. c #B89D7A",
"f. c #B1B167",
"g. c #BCA17A",
"h. c #C19A65",
"j. c #C29C6B",
"k. c #C39762",
"l. c #CCA46B",
"z. c #DAAD6F",
"x. c #D2A46A",
"c. c #C6A676",
"v. c #D3B27B",
"b. c #325682",
"n. c #3364A2",
"m. c #496181",
"M. c #5C7288",
"N. c #4E6F99",
"B. c #58779B",
"V. c #667B99",
"C. c #4C77A9",
"Z. c #557BA5",
"A. c #4679B7",
"S. c #627FA5",
"D. c #3F7FCE",
"F. c #4279C8",
"G. c #5A7EC2",
"H. c #6B839C",
"J. c #7B8C9D",
"K. c #71859A",
"L. c #5F80A5",
"P. c #6C86A3",
"I. c #6989AE",
"U. c #7B84AB",
"Y. c #738EB0",
"T. c #4282CF",
"R. c #4780C5",
"E. c #5488C9",
"W. c #4C88D3",
"Q. c #508BD3",
"!. c #5E93D7",
"~. c #728AC5",
"^. c #7698C3",
"/. c #6C9FDD",
"(. c #789BD1",
"). c #74A3DE",
"_. c #78A2DD",
"`. c #77A5E1",
"'. c gray53",
"]. c #878984",
"[. c #93958E",
"{. c #88849C",
"}. c #8A9199",
"|. c #9C9C9C",
" X c #9B9893",
".X c #AC9F8C",
"XX c #A29682",
"oX c #9DA09A",
"OX c #B9A483",
"+X c #B9AA8E",
"@X c #A2A299",
"#X c #BDAC91",
"$X c #8889A2",
"%X c #8596A7",
"&X c #9A98AD",
"*X c #9AA5B2",
"=X c #ACAEA9",
"-X c #B7ADA0",
";X c #AEB2AB",
":X c #B3B1AA",
">X c #A2ACB7",
",X c #A8B2BC",
"<X c #B4B5B3",
"1X c #BABBB6",
"2X c #BEBEBE",
"3X c #C3A983",
"4X c #C3AD8B",
"5X c #C8AB83",
"6X c #C3B193",
"7X c #CAB494",
"8X c #C9B99C",
"9X c #CBBBA3",
"0X c #FED381",
"qX c #CFC2A8",
"wX c #D2C2A9",
"eX c #CBC7BB",
"rX c #C0C1BC",
"tX c #D5CAB3",
"yX c #8A9CCE",
"uX c #9FACD7",
"iX c #BABFC2",
"pX c #A3B2D5",
"aX c #82AEE4",
"sX c #8EB6EA",
"dX c #88B2E7",
"fX c #94BBEE",
"gX c #B7C0DF",
"hX c #BEC7DB",
"jX c #9DC1F1",
"kX c #A7C6F3",
"lX c #C6C9C3",
"zX c #C9CCC6",
"xX c #C9CCCB",
"cX c #CED2CA",
"vX c #D3D4CD",
"bX c #D9D7CE",
"nX c #C2C5D3",
"mX c #D5D6D2",
"MX c #D6DAD3",
"NX c #DADCD6",
"BX c #D6DBDD",
"VX c #DCDED8",
"CX c #E1D9CA",
"ZX c #DEE1DB",
"AX c #E1E3DD",
"SX c #CDD3E6",
"DX c #DFE3EA",
"FX c #E5E6E2",
"GX c #E7E8E4",
"HX c #E9EAE6",
"JX c #ECEDEA",
"KX c #EFF1ED",
"LX c #F3F2EE",
"PX c #F3F3F1",
"IX c #FFFFFF",
"UX c None",
/* pixels */
"6X8XUXUXUXUXUXUXUXUXUXUXUXUXUXUXUXUXUXUXUXUXUXUXUXUXUXUXUXUXUXUX",
"qXOXtXUXUXUXUXzXNXmXcXlXrX1X:X=X=X=X;X;XUXUXUXUXUXUXUXUXUXUXUXUX",
"UX4XwXUXUXUXUXNXJXJXHXHXHXHXGXGXGXGXHXHXHXHXHXHXHXZXg UXUXUXUXUX",
"UX7XOXUXUXUXUXAXHXHXHXHXHXGXGXGXGXGXGXHXHXJXJXJXKXmX9 UXUXUXUXUX",
"UX7X8.qXUXUXUXGXHXAXFXFXHXHXAXAXGXGXHXHXJXJXJXFXZX<X4 UXUXUXUXUX",
"UXUXg.6XUXUXlXGX>XM.V.L.K.J.%X*X,XnXNXAXHXAXAXAXZX X5 UXUXUXUXUX",
"UXUX4Xw.wXUXcXFXJ.R.T.C.c s y u C.C.Z.L.P.V.BXZXZXm 2 UXUXUXUXUX",
"UXUX7X5.9XUXvXFXK.W.N.p ; - % O o n.D.T.!.F.BXZXNXk 6 UXUXUXUXUX",
"UXUXUXc.4XUXMXFXV.E.i - % + .     X A.Q._.E.ZXNXcXh B UXUXUXUXUX",
"UXUXUX6X8.tXVXMXP.N.& + .           b.!._.~.NXNX1Xq UXUXUXUXUXUX",
"UXUXUX8Xa.9XVXiXY.y |.'.    O .     r /.).yXNXNX@X7 UXUXUXUXUXUX",
"UXUXUXUX4X+XvX>X^.= v <X  d IXiX    e _./.pXMXMXK.V UXUXUXUXUXUX",
"UXUXUXUX+X1..X}.(.% i f.# 1X& <X%   t aX).hXmXvXv V UXUXUXUXUXUX",
"UXUXUXUX^ 3.2.n L.: @.+.O.#.@ <X    m.dX_.BXmXcXg A UXUXUXUXUXUX",
"UXUXUXUXE 6.OX4.b _ O.o.X. .{ j     L.sX(.NXMXlXf A UXUXUXUXUXUX",
"UXUXUXUX/ 1.( c.#Xe.| ..[ ] ' N   . ^.sXyXNXNX;Xw UXUXUXUXUXUXUX",
"UXUXUXUX1.u.6.g.3X4X;.` ' } 0X3   . Y.fXuXNXNX[.S UXUXUXUXUXUXUX",
"UXUXUXUXp.-.=.g.d.5Xs.#XLXIXIXm     V.jXgXZXZXn C > UXUXUXUXUXUX",
"UXUXUXUXa.=.=.u.s.d.c.8.bXIXIX|.  . c kXSXAXNXk 6 < 0 UXUXUXUXUX",
"UXUXUXUX.X6.6.*.u.i.d.4.4.PXIX2X    $ kXDXFXMXl 2 , < Z c.UXUXUX",
"UXUXUXUX-X5.6.T 5.1.2.w.9. X&X{.$     U.JXGXzXj 1 < < 1 V v.UXUX",
"UXUXUXUXeX( Y U Y *.w.i.E R eXHXHXnX{.$XJXHX<Xq 6 7 5 2 7 A v.UX",
"UXUXUXUX@X5.L *.P *.*.u.r.E 9.NXHXHXJXHXJXKXoX7 UXI D Z Z D A UX",
"UXUXUXUXUXE E -.Q T =.-.t.J r.a.AXJXKXKXKXKX].1 UXUX;.I %.%.F A ",
"UXUXUXUXUX$.%.:.;.T 0.>.t.t.w j.a.AXKXLXLXHXM < UXUXUXUX<.&.K UX",
"UXUXUXUXUX! :.h.>.t.%.0.q.i.! T -.7.CXJXKXBXk > UXUXUXUXUXUXUXUX",
"UXUXUXUXUXL l.y.&.k.;.h.>.>.q.P &.8 J XX:X<Xa 9 UXUXUXUXUXUXUXUX",
"UXUXUXUXUXUXy.z.:.,.:.,.>.:.t.:.L Q G UX& d * UXUXUXUXUXUXUXUXUX",
"UXUXUXUXUXUX0.x.,.,.z.%.&.~ ,.! L UXUXUXUXUXUXUXUXUXUXUXUXUXUXUX",
"UXUXUXUXUXUXE &.:.,.k.%.%.H UXUXUXUXUXUXUXUXUXUXUXUXUXUXUXUXUXUX",
"UXUXUXUXUXUXG P H P UXUXUXUXUXUXUXUXUXUXUXUXUXUXUXUXUXUXUXUXUXUX",
"UXUXUXUXUXUXUXUXUXUXUXUXUXUXUXUXUXUXUXUXUXUXUXUXUXUXUXUXUXUXUXUX"
};
